<?xml version="1.0" standalone="no"?>
<!DOCTYPE svg PUBLIC "-//W3C//DTD SVG 20010904//EN"
 "http://www.w3.org/TR/2001/REC-SVG-20010904/DTD/svg10.dtd">
<svg version="1.0" xmlns="http://www.w3.org/2000/svg"
 width="4000.000000pt" height="4000.000000pt" viewBox="0 0 4000.000000 4000.000000"
 preserveAspectRatio="xMidYMid meet">

<g transform="translate(0.000000,4000.000000) scale(0.100000,-0.100000)"
fill="#000000" stroke="none">
<path d="M13720 34238 c-74 -4 -218 -20 -320 -34 -565 -79 -1067 -234 -1580
-490 -222 -111 -320 -167 -505 -288 -893 -586 -1573 -1419 -1958 -2396 -187
-473 -284 -878 -337 -1404 -20 -199 -20 -249 -20 -9313 0 -5012 4 -9113 8
-9113 4 0 13 -64 20 -142 73 -875 398 -1759 913 -2485 299 -420 677 -810 1089
-1122 607 -460 1344 -790 2089 -935 1423 -278 2888 57 4046 925 197 147 313
248 499 429 381 373 646 721 912 1196 94 169 150 287 136 292 -5 1 15 60 45
130 153 353 279 773 342 1142 52 307 56 363 56 805 -1 439 -11 606 -55 899
-11 71 -18 131 -15 134 3 3 222 -211 488 -474 487 -483 649 -642 766 -750 35
-32 708 -688 1495 -1458 787 -769 1467 -1427 1511 -1462 272 -219 821 -547
1233 -739 671 -312 1363 -502 2022 -555 173 -14 563 -14 727 0 1175 100 2188
616 3086 1569 692 735 1118 1544 1281 2433 86 465 91 1025 16 1523 -119 781
-430 1596 -909 2380 -185 304 -444 670 -613 866 -41 48 -998 1062 -2128 2255
-1130 1193 -2078 2194 -2107 2225 l-53 56 2103 2220 c1157 1221 2128 2249
2159 2284 75 87 216 269 320 414 575 805 988 1708 1168 2555 138 653 145 1324
19 1938 -74 365 -196 713 -375 1072 -261 524 -598 977 -1066 1435 -520 510
-1057 866 -1658 1100 -952 371 -1967 399 -3061 85 -394 -114 -839 -293 -1209
-488 -310 -162 -709 -411 -921 -573 -63 -48 -600 -566 -1549 -1494 -799 -781
-1478 -1442 -1509 -1469 -31 -26 -323 -311 -648 -633 -326 -322 -593 -582
-593 -579 0 3 9 65 19 138 69 471 82 1052 31 1463 -56 450 -189 942 -371 1365
-37 84 -54 137 -48 141 23 14 -207 435 -364 668 -430 637 -941 1127 -1603
1537 -141 88 -513 276 -679 344 -538 220 -1073 346 -1615 380 -190 12 -534 11
-730 -2z m13440 -1488 c607 -36 1152 -208 1666 -525 299 -185 537 -377 824
-664 812 -814 1210 -1712 1210 -2725 0 -882 -320 -1843 -923 -2781 -110 -171
-266 -388 -391 -543 -51 -64 -1172 -1255 -2490 -2646 l-2397 -2529 84 -86 c61
-62 3419 -3607 4681 -4941 157 -166 430 -543 633 -875 391 -640 665 -1362 762
-2005 34 -230 44 -366 43 -610 -1 -332 -29 -566 -103 -859 -171 -675 -538
-1290 -1114 -1866 -896 -897 -1936 -1286 -3100 -1160 -458 50 -982 194 -1455
402 -332 146 -749 380 -1045 586 -136 95 -183 139 -1690 1611 -931 909 -2054
2019 -2810 2778 -1815 1820 -2024 2020 -2380 2287 -433 325 -927 585 -1425
752 -433 144 -906 238 -1285 256 -80 3 -145 10 -145 15 0 4 -92 8 -205 8 -113
0 -205 -4 -205 -8 0 -5 -65 -12 -145 -15 -379 -18 -853 -112 -1285 -257 -699
-233 -1401 -660 -1890 -1150 -232 -232 -428 -465 -613 -732 -56 -81 -105 -147
-108 -147 -9 -1 -19 10914 -11 11518 l7 513 60 -88 c232 -344 555 -719 812
-944 136 -119 383 -310 529 -407 530 -356 1172 -628 1774 -754 251 -52 608
-99 758 -99 34 0 62 -4 62 -10 0 -6 90 -10 250 -10 160 0 250 4 250 10 0 6 28
10 63 10 89 0 256 17 447 45 712 104 1425 375 2025 769 174 114 429 306 558
419 208 183 572 541 1932 1902 842 843 2019 2006 2920 2886 831 811 1540 1501
1576 1535 189 174 811 540 1223 719 492 213 1005 353 1471 400 260 26 369 28
595 15z"/>
</g>
</svg>
